<?xml version="1.0" encoding="UTF-8"?>
<!-- つたえるカード art: pain-kirikiri / キリキリ (person, sharp pain flash on belly) -->
<svg xmlns="http://www.w3.org/2000/svg" viewBox="0 0 120 120" role="img" aria-label="キリキリ">
  <rect x="6" y="6" width="108" height="108" rx="22" fill="#efe9dd"/>
  <!-- 頭 -->
  <circle cx="60" cy="25" r="13" fill="#f2d9ae" stroke="#5f5847" stroke-width="2.5"/>
  <!-- ぎゅっと閉じた目と口 -->
  <g fill="none" stroke="#5f5847" stroke-width="2" stroke-linecap="round" stroke-linejoin="round">
    <path d="M51 22 l4 3 -4 3"/>
    <path d="M69 22 l-4 3 4 3"/>
    <path d="M56 33 q4 -2 8 0"/>
  </g>
  <!-- からだ -->
  <path d="M28 104 q0 -38 10 -50 q8 -12 22 -12 q14 0 22 12 q10 12 10 50 z" fill="#faf6ef" stroke="#5f5847" stroke-width="2.8" stroke-linejoin="round"/>
  <!-- おなかに走る鋭い痛みの閃光（外：赤） -->
  <polygon points="80,76 67.4,79.1 72,88 63.4,84.3 60,97 56.9,83.4 48.7,87.3 51.7,79.4 41,76 52.6,72.9 47.3,63.3 57.3,69.5 60,55 63.4,67.7 72,64 67.4,72.9" fill="#d97757" stroke="#b05a3e" stroke-width="2" stroke-linejoin="round"/>
  <!-- 閃光（内：黄） -->
  <polygon points="71,76 64.1,77.7 66.6,82.6 61.9,80.6 60,87.6 58.3,80.1 53.8,82.2 55.4,77.9 49.6,76 55.9,74.3 53,69 58.5,72.4 60,64.5 61.9,71.4 66.6,69.4 64.1,74.3" fill="#ffd15c"/>
</svg>
