<?xml version="1.0" encoding="UTF-8"?>
<!-- つたえるカード art: trb-atsui-samui / あつい/さむい (split sun + snowflake) -->
<svg xmlns="http://www.w3.org/2000/svg" viewBox="0 0 120 120" role="img" aria-label="あつい さむい">
  <rect x="6" y="6" width="108" height="108" rx="22" fill="#efe9dd"/>
  <path d="M60 22 L60 98" fill="none" stroke="#5f5847" stroke-width="2" stroke-dasharray="4 5" opacity="0.5"/>
  <g stroke="#d97757" stroke-width="3" stroke-linecap="round">
    <path d="M18 60 L24 60"/>
    <path d="M23 41 L27 45"/>
    <path d="M23 79 L27 75"/>
    <path d="M45 44 L48 48"/>
    <path d="M45 76 L48 72"/>
  </g>
  <circle cx="36" cy="60" r="15" fill="#ffd15c" stroke="#5f5847" stroke-width="2.5"/>
  <g fill="none" stroke="#5f5847" stroke-width="3" stroke-linecap="round" stroke-linejoin="round">
    <path d="M84 42 L84 78"/>
    <path d="M68.4 51 L99.6 69"/>
    <path d="M99.6 51 L68.4 69"/>
    <path d="M84 42 l-4 5 M84 42 l4 5"/>
    <path d="M84 78 l-4 -5 M84 78 l4 -5"/>
    <path d="M68.4 51 l-1 6 M68.4 51 l6 -1"/>
    <path d="M99.6 69 l1 -6 M99.6 69 l-6 1"/>
  </g>
</svg>
